<!--?xml version="1.0" standalone="no"?-->
              <svg id="sw-js-blob-svg" viewBox="0 0 100 100" xmlns="http://www.w3.org/2000/svg" version="1.1">
                    <defs> 
                        <linearGradient id="sw-gradient" x1="0" x2="1" y1="1" y2="0">
                            <stop id="stop1" stop-color="rgba(237.156, 97.144, 44.191, 1)" offset="0%"></stop>
                            <stop id="stop2" stop-color="rgba(246.263, 143.681, 37.683, 1)" offset="100%"></stop>
                        </linearGradient>
                    </defs>
                <path fill="url(#sw-gradient)" d="M18.4,-27.6C23.9,-21.3,28.6,-16,30.5,-9.9C32.5,-3.8,31.7,3.1,30.3,10.6C28.9,18,26.7,25.9,21.6,32.2C16.4,38.5,8.2,43.1,-0.6,44C-9.5,44.9,-19,42.1,-26.9,36.7C-34.8,31.3,-41.2,23.4,-43.6,14.5C-46.1,5.6,-44.7,-4.2,-40,-11.2C-35.2,-18.1,-27.1,-22.2,-19.9,-28C-12.7,-33.9,-6.4,-41.5,0,-41.5C6.4,-41.5,12.8,-34,18.4,-27.6Z" width="100%" height="100%" transform="translate(50 50)" stroke-width="0" style="transition: all 0.3s ease 0s;"></path>
              </svg>